# AST/ASF file generated using VICON BodyLanguage
# -----------------------------------------------
:version 1.10
:name VICON
:units
  mass 1.0
  length 0.45
  angle deg
:documentation
   .ast/.asf automatically generated from VICON data using
   VICON BodyBuilder and BodyLanguage model FoxedUp or BRILLIANT.MOD
:root
   order TX TY TZ RX RY RZ
   axis XYZ
   position 0 0 0  
   orientation 0 0 0 
:bonedata
  begin
     id 1 
     name lhipjoint
     direction 0.611804 -0.747784 0.257906 
     length 2.29243 
     axis 0 0 0  XYZ
  end
  begin
     id 2 
     name lfemur
     direction 0.34202 -0.939693 0  
     length 7.31159  
     axis 0 0 20  XYZ
    dof rx ry rz
    limits (-160.0 20.0)
           (-70.0 70.0)
           (-60.0 70.0)
  end
  begin
     id 3 
     name ltibia
     direction 0.34202 -0.939693 0   
     length 7.33391   
     axis 0 0 20   XYZ
    dof rx
    limits (-10.0 170.0)
  end
  begin
     id 4 
     name lfoot
     direction 0.122263 -0.335914 0.933924   
     length 1.76083   
     axis -90 7.62852e-016 20   XYZ
    dof rx rz
    limits (-45.0 90.0)
           (-70.0 20.0)
  end
  begin
     id 5 
     name ltoes
     direction 1.53533e-011 -4.2177e-011 1   
     length 0.879206   
     axis -90 7.62852e-016 20   XYZ
    dof rx
    limits (-90.0 20.0)
  end
  begin
     id 6 
     name rhipjoint
     direction -0.646469 -0.721248 0.248754   
     length 2.37677  
     axis 0 0 0  XYZ 
  end
  begin
     id 7 
     name rfemur
     direction -0.34202 -0.939693 0   
     length 7.18623   
     axis 0 0 -20   XYZ
    dof rx ry rz
    limits (-160.0 20.0)
           (-70.0 70.0)
           (-70.0 60.0)
  end
  begin
     id 8 
     name rtibia
     direction -0.34202 -0.939693 0   
     length 7.36567   
     axis 0 0 -20   XYZ
    dof rx
    limits (-10.0 170.0)
 end
 begin
     id 9 
     name rfoot
     direction -0.126681 -0.348054 0.928876   
     length 1.71902  
     axis -90 -7.62852e-016 -20   XYZ
    dof rx rz
    limits (-45.0 90.0)
           (-20.0 70.0)
  end
  begin
     id 10 
     name rtoes
     direction -1.53551e-011 -4.21898e-011 1   
     length 0.857792   
     axis -90 -7.62852e-016 -20   XYZ
    dof rx
    limits (-90.0 20.0)
  end
  begin
     id 11 
     name lowerback
     direction 0.0106509 0.999778 0.0181844   
     length 2.07668   
     axis 0 0 0   XYZ
    dof rx ry rz
    limits (-20.0 45.0)
           (-30.0 30.0)
           (-30.0 30.0)
  end
  begin
     id 12 
     name upperback
     direction -0.00456018 0.999989 -0.000590935   
     length 2.08011   
     axis 0 0 0   XYZ
    dof rx ry rz
    limits (-20.0 45.0)
           (-30.0 30.0)
           (-30.0 30.0)
  end
  begin
     id 13 
     name thorax
     direction -0.00910382 0.999916 -0.00923765   
     length 2.07397   
     axis 0 0 0   XYZ
    dof rx ry rz
    limits (-20.0 45.0)
           (-30.0 30.0)
           (-30.0 30.0)
  end
  begin
     id 14 
     name lowerneck
     direction 0.00171967 0.99778 0.0665733   
     length 1.67556   
     axis 0 0 0   XYZ
    dof rx ry rz
    limits (-20.0 45.0)
           (-30.0 30.0)
           (-30.0 30.0)
  end
  begin
     id 15 
     name upperneck
     direction -0.0143166 0.991302 -0.130828   
     length 1.68462   
     axis 0 0 0   XYZ
    dof rx ry rz
    limits (-20.0 45.0)
           (-30.0 30.0)
           (-30.0 30.0)
  end
  begin
     id 16
     name head
     direction -0.00606378 0.998665 -0.0512995  
     length 1.69269  
     axis 0 0 0   XYZ
    dof rx ry rz
    limits (-20.0 45.0)
           (-30.0 30.0)
           (-30.0 30.0)
  end
  begin
     id 17 
     name lclavicle
     direction 0.9638 0.179341 0.197297  
     length 4.12888  
     axis 0 0 0   XYZ
    dof ry rz
    limits (-20.0 10.0)
           (0.0 20.0)
  end
  begin
     id 18 
     name lhumerus
     direction 1 -4.48972e-011 -2.47351e-027   
     length 5.01834   
     axis -180 -30 -90   XYZ
    dof rx ry rz
    limits (-60.0 90.0)
           (-90.0 90.0)
           (-90.0 90.0)
  end
  begin
     id 19
     name lradius
     direction 1 -4.48965e-011 1.51591e-026   
     length 3.4869   
     axis -180 -30 -90   XYZ
    dof rx
    limits (-10.0 170.0)
  end
  begin
     id 20
     name lwrist
     direction 1 -4.48957e-011 2.70032e-026   
     length 1.74345   
     axis -1.81515e-014 90 90   XYZ
    dof ry
    limits (-180.0 0.0)
 end
  begin
     id 21 
     name lhand
     direction 1 -4.48951e-011 5.40064e-026   
     length 0.76799   
     axis -3.44607e-014 90 90   XYZ
    dof rx rz
    limits (-90.0 90.0)
           (-45.0 45.0)
  end
  begin
     id 22 
     name lfingers
     direction 1 -4.48971e-011 1.08013e-025   
     length 0.619174   
     axis -6.89214e-014 90 90   XYZ
    dof rx
    limits (0.0 90.0)
  end
  begin
     id 23
     name lthumb
     direction 0.707107 -6.34931e-011 0.707107   
     length 0.889013   
     axis -90 45 2.85299e-015   XYZ
    dof rx rz
    limits (-45.0 45.0)
           (-45.0 45.0)
  end
  begin
     id 24 
     name rclavicle
     direction -0.961409 0.252588 0.109054   
     length 4.04305  
     axis 0 0 0   XYZ 
    dof ry rz
    limits (-10.0 20.0)
           (-20.0 0.0)
  end
  begin
     id 25 
     name rhumerus
     direction -1 -4.4897e-011 1.33872e-017  
     length 4.70164   
     axis -180 30 90   XYZ
    dof rx ry rz
    limits (-90.0 60.0)
           (-90.0 90.0)
           (-90.0 90.0)
  end
  begin
     id 26 
     name rradius
     direction -1 -4.48954e-011 1.83844e-026   
     length 3.49911   
     axis -180 30 90   XYZ
    dof rx
    limits (-10.0 170.0)
  end
  begin
     id 27 
     name rwrist
     direction -1 -4.49008e-011 2.70032e-026   
     length 1.74955   
     axis -1.81515e-014 -90 -90   XYZ
    dof ry
    limits (-180.0 0.0)
  end
  begin
     id 28
     name rhand
     direction -1 -4.48916e-011 5.40064e-026   
     length 0.739335   
     axis -3.44607e-014 -90 -90   XYZ
    dof rx rz
    limits (-90.0 90.0)
           (-45.0 45.0)
  end
  begin
     id 29
     name rfingers
     direction -1 -4.48987e-011 1.08013e-025   
     length 0.596071   
     axis -6.89214e-014 -90 -90   XYZ
    dof rx
    limits (0.0 90.0)
  end
  begin
     id 30
     name rthumb
     direction -0.707107 -6.34935e-011 0.707107   
     length 0.855843   
     axis -90 -45 -2.85299e-015   XYZ
    dof rx rz
    limits (-45.0 45.0)
           (-45.0 45.0)
  end
:hierarchy
  begin
    root lhipjoint rhipjoint lowerback
    lhipjoint lfemur
    lfemur ltibia
    ltibia lfoot
    lfoot ltoes
    rhipjoint rfemur
    rfemur rtibia
    rtibia rfoot
    rfoot rtoes
    lowerback upperback
    upperback thorax
    thorax lowerneck lclavicle rclavicle
    lowerneck upperneck
    upperneck head
    lclavicle lhumerus
    lhumerus lradius
    lradius lwrist
    lwrist lhand lthumb
    lhand lfingers
    rclavicle rhumerus
    rhumerus rradius
    rradius rwrist
    rwrist rhand rthumb
    rhand rfingers
  end

#!OML:ASF I:\salsa\salsa 7_09\Patient 1\Session 1\dancermale.ASF
:FULLY-SPECIFIED
:DEGREES
841
root -1.29453 7.8982 -10.6519 187.271 155.958 187.847
lowerback 30.6922 1.78291 -4.2723
upperback -0.205312 0.170604 -3.97743
thorax -16.471 0.262558 -2.1329
lowerneck -7.25977 6.18026 6.1537
upperneck -4.82937 7.76377 -6.45931
head 0.245587 3.79911 -2.9082
rclavicle -5.96354e-015 -1.39149e-015
rhumerus -40.7323 38.4821 -118.971
rradius 108.125
rwrist 5.09307
rhand -26.1933 9.0806
rfingers 7.12502
rthumb 0.359057 -20.8988
lclavicle -5.96354e-015 -1.39149e-015
lhumerus 18.4036 12.9835 88.7605
lradius 61.7227
lwrist 46.1072
lhand -19.1131 49.8828
lfingers 7.12502
lthumb 7.19598 1159.74
rfemur -104.601 -36.3787 23.6041
rtibia 29.7048
rfoot 155.802 25.2904
rtoes -28.5438
lfemur -56.4739 29.5455 28.7708
ltibia 76.1301
lfoot 351.938 1.94617
ltoes -35.7197
842
root -1.40606 7.86945 -10.6226 187.172 155.758 187.897
lowerback 30.9804 1.65955 -4.34435
upperback -0.183351 -0.0210825 -3.89515
thorax -16.5765 0.19056 -1.92764
lowerneck -7.13351 6.57524 6.45102
upperneck -5.14716 8.26704 -6.77156
head 0.184263 4.04952 -3.05546
rclavicle 1.59028e-014 -2.18663e-015
rhumerus -42.2508 38.1525 -118.686
rradius 108.702
rwrist 4.34324
rhand -25.942 8.87306
rfingers 7.12502
rthumb 0.60181 -21.1058
lclavicle 1.59028e-014 -2.18663e-015
lhumerus 20.4439 14.8133 88.1233
lradius 58.7447
lwrist 47.0603
lhand -17.2547 49.6117
lfingers 7.12502
lthumb 8.98962 1159.4
rfemur -105.146 -36.0521 24.4148
rtibia 29.0484
rfoot 156.752 25.2399
rtoes -29.6297
lfemur -56.0111 29.3394 29.186
ltibia 75.2332
lfoot 351.673 1.32149
ltoes -35.6163
843
root -1.50532 7.84477 -10.598 187.185 155.58 188.088
lowerback 31.2098 1.51034 -4.55613
upperback -0.142619 -0.295066 -3.8343
thorax -16.6284 0.0937279 -1.63251
lowerneck -7.06381 6.98151 6.77913
upperneck -5.50216 8.7792 -7.10079
head 0.126572 4.30338 -3.21301
rclavicle -5.63555e-014 2.82274e-014
rhumerus -43.6634 37.8861 -118.239
rradius 109.298
rwrist 3.73917
rhand -25.5698 8.5461
rfingers 7.12502
rthumb 0.961234 -21.4315
lclavicle -5.63555e-014 2.82274e-014
lhumerus 22.3623 16.855 87.5824
lradius 56.0473
lwrist 48.0249
lhand -15.2904 49.5374
lfingers 7.12502
lthumb 10.8847 1159.24
rfemur -105.623 -35.8018 24.9999
rtibia 28.4741
rfoot 156.78 25.0484
rtoes -29.2765
lfemur -55.6573 29.121 29.3872
ltibia 74.3563
lfoot 351.438 0.757434
ltoes -35.3699
844
root -1.59319 7.82338 -10.5775 187.33 155.433 188.305
lowerback 31.3593 1.35537 -4.84816
upperback -0.146916 -0.597364 -3.73291
thorax -16.6917 -0.00671165 -1.2358
lowerneck -7.18535 7.37955 7.13843
upperneck -5.66547 9.27012 -7.56541
head 0.175029 4.54214 -3.41159
rclavicle -1.00386e-014 -1.68967e-014
rhumerus -45.1422 37.594 -117.603
rradius 109.938
rwrist 3.54086
rhand -25.1367 8.28044
rfingers 7.12502
rthumb 1.37958 -21.6948
lclavicle -1.00386e-014 -1.68967e-014
lhumerus 24.0005 18.9407 87.1863
lradius 53.7758
lwrist 49.242
lhand -14.0959 49.5388
lfingers 7.12502
lthumb 12.0367 1159.17
rfemur -106.138 -35.5914 25.5123
rtibia 27.9715
rfoot 156.007 24.6805
rtoes -27.188
lfemur -55.4362 28.9649 29.4836
ltibia 73.5646
lfoot 351.177 0.328824
ltoes -35.8329
845
root -1.67427 7.80637 -10.5563 187.366 155.373 188.361
lowerback 31.5757 1.25965 -5.11442
upperback -0.143806 -0.807053 -3.5634
thorax -16.772 -0.0657915 -0.817276
lowerneck -7.5005 7.68052 7.63683
upperneck -5.68503 9.61044 -8.25497
head 0.318057 4.69845 -3.70921
rclavicle -1.05356e-014 4.29375e-014
rhumerus -46.3825 37.328 -116.801
rradius 110.56
rwrist 3.37896
rhand -24.7943 7.91377
rfingers 7.12502
rthumb 1.71019 -22.0591
lclavicle -1.05356e-014 4.29375e-014
lhumerus 25.4208 20.7492 86.8301
lradius 51.8089
lwrist 49.7665
lhand -13.2455 49.5553
lfingers 7.12502
lthumb 12.8566 1159.14
rfemur -106.484 -35.3314 26.0529
rtibia 27.5649
rfoot 155.888 24.5337
rtoes -26.9438
lfemur -55.0863 28.837 29.7778
ltibia 72.826
lfoot 350.963 0.0206305
ltoes -36.7618
846
root -1.74641 7.7919 -10.5352 187.389 155.286 188.406
lowerback 31.7332 1.11637 -5.22855
upperback -0.0584458 -1.03254 -3.51665
thorax -16.7309 -0.151198 -0.607626
lowerneck -7.51312 7.97058 7.89579
upperneck -6.29585 9.95573 -8.58182
head 0.184095 4.87056 -3.86457
rclavicle -1.11319e-014 7.7526e-015
rhumerus -47.1176 37.0439 -115.954
rradius 111.066
rwrist 3.19503
rhand -24.6116 7.64339
rfingers 7.12502
rthumb 1.88668 -22.328
lclavicle -1.11319e-014 7.7526e-015
lhumerus 26.8536 22.1783 86.3831
lradius 50.0297
lwrist 49.5394
lhand -12.5453 49.6117
lfingers 7.12502
lthumb 13.5315 1159.15
rfemur -106.86 -35.1699 26.6465
rtibia 27.2106
rfoot 156.207 24.592
rtoes -27.7553
lfemur -54.7571 28.6034 30.0847
ltibia 72.1245
lfoot 350.923 -0.149859
ltoes -37.4955
847
root -1.81264 7.77736 -10.5164 187.59 155.162 188.484
lowerback 31.7547 0.970046 -5.36206
upperback 0.0115276 -1.26368 -3.49455
thorax -16.6455 -0.239852 -0.411465
lowerneck -7.04036 8.35124 7.61088
upperneck -7.57114 10.4795 -8.39868
head -0.298799 5.1556 -3.77746
rclavicle 4.17448e-015 3.77691e-015
rhumerus -47.914 36.5181 -115.02
rradius 111.653
rwrist 3.16661
rhand -24.543 7.63346
rfingers 7.12502
rthumb 1.95289 -22.3373
lclavicle 4.17448e-015 3.77691e-015
lhumerus 28.2719 23.4339 86.0872
lradius 48.4527
lwrist 49.0354
lhand -12.1813 49.535
lfingers 7.12502
lthumb 13.8823 1159.05
rfemur -107.55 -35.0516 27.4189
rtibia 26.8743
rfoot 155.891 24.507
rtoes -26.3863
lfemur -54.6059 28.3821 30.2964
ltibia 71.5003
lfoot 351.048 -0.18463
ltoes -38.0506
848
root -1.879 7.76833 -10.4992 187.786 155.197 188.632
lowerback 31.9298 0.961396 -5.7174
upperback 0.0411938 -1.41494 -3.48115
thorax -16.6707 -0.274236 -0.141615
lowerneck -6.83861 8.55045 7.3321
upperneck -8.59342 10.7579 -8.10538
head -0.680149 5.30985 -3.65667
rclavicle -3.18055e-014 2.44505e-014
rhumerus -48.6663 35.7236 -114.037
rradius 112.364
rwrist 2.92629
rhand -24.4976 7.4252
rfingers 7.12502
rthumb 1.99678 -22.5452
lclavicle -3.18055e-014 2.44505e-014
lhumerus 29.7625 24.6251 86.0658
lradius 46.8949
lwrist 48.409
lhand -10.98 49.6865
lfingers 7.12502
lthumb 15.0398 1159.12
rfemur -108.197 -34.7755 28.1068
rtibia 26.592
rfoot 155.445 24.4811
rtoes -24.4222
lfemur -54.1941 28.1499 30.5345
ltibia 70.8019
lfoot 351.318 -0.159596
ltoes -38.6668
849
root -1.93976 7.76134 -10.4846 187.945 155.404 188.869
lowerback 32.2155 1.04438 -6.22543
upperback 0.0427467 -1.52107 -3.48745
thorax -16.7735 -0.275376 0.167815
lowerneck -6.76881 8.77896 7.25882
upperneck -9.26418 11.0549 -8.16537
head -0.88908 5.46694 -3.67756
rclavicle 3.06128e-014 -1.92821e-014
rhumerus -49.3468 34.8141 -113.095
rradius 113.113
rwrist 2.39923
rhand -24.4244 6.9583
rfingers 7.12502
rthumb 2.06751 -23.0114
lclavicle 3.06128e-014 -1.92821e-014
lhumerus 31.3421 25.9118 86.4001
lradius 45.2768
lwrist 47.7142
lhand -10.056 49.7564
lfingers 7.12502
lthumb 15.9297 1159.12
rfemur -108.724 -34.3663 28.632
rtibia 26.3504
rfoot 155.436 24.6256
rtoes -23.5974
lfemur -53.5787 27.9295 30.7691
ltibia 70.1022
lfoot 351.75 -0.0769441
ltoes -39.328
850
root -1.98605 7.75137 -10.4724 188.232 155.556 189.124
lowerback 32.3064 1.06448 -6.61037
upperback 0.0363034 -1.65514 -3.53272
thorax -16.8019 -0.302075 0.380874
lowerneck -6.73736 9.08666 7.07467
upperneck -9.68377 11.4683 -8.21414
head -1.00764 5.68443 -3.65979
rclavicle 5.13858e-014 -1.66979e-014
rhumerus -50.0306 33.6813 -112.153
rradius 113.918
rwrist 2.03943
rhand -24.1638 6.42115
rfingers 7.12502
rthumb 2.31921 -23.546
lclavicle 5.13858e-014 -1.66979e-014
lhumerus 32.7861 26.9895 86.7277
lradius 43.7638
lwrist 47.4806
lhand -9.58283 49.5379
lfingers 7.12502
lthumb 16.3853 1158.87
rfemur -109.374 -34.0593 29.1493
rtibia 26.1172
rfoot 155.476 24.7077
rtoes -23.2089
lfemur -53.275 27.7962 30.8708
ltibia 69.5819
lfoot 352.437 0.242918
ltoes -40.0508
851
root -2.02375 7.74351 -10.4591 188.537 155.629 189.335
lowerback 32.3079 1.0679 -6.95116
upperback 0.0478262 -1.77935 -3.548
thorax -16.7678 -0.328989 0.599399
lowerneck -6.82742 9.20648 6.90622
upperneck -9.98158 11.6305 -8.1299
head -1.09363 5.77108 -3.60138
rclavicle -3.88624e-014 -1.82882e-014
rhumerus -50.5234 32.4173 -111.145
rradius 114.686
rwrist 1.94557
rhand -23.9978 6.09098
rfingers 7.12502
rthumb 2.47949 -23.8744
lclavicle -3.88624e-014 -1.82882e-014
lhumerus 34.0496 27.7585 86.8626
lradius 42.4152
lwrist 47.8155
lhand -9.20915 49.073
lfingers 7.12502
lthumb 16.7451 1158.37
rfemur -110.018 -33.882 29.5517
rtibia 25.9229
rfoot 155.279 24.5936
rtoes -22.112
lfemur -53.1061 27.7409 30.9437
ltibia 69.0843
lfoot 353.436 0.766939
ltoes -40.9126
852
root -2.05895 7.73814 -10.446 188.761 155.781 189.545
lowerback 32.4117 1.11621 -7.3972
upperback 0.0636703 -1.89063 -3.53927
thorax -16.767 -0.339738 0.894065
lowerneck -6.84216 9.39937 6.80778
upperneck -10.2975 11.882 -8.23885
head -1.17471 5.90468 -3.62138
rclavicle -3.47873e-015 1.82882e-014
rhumerus -50.8858 31.28 -110.271
rradius 115.328
rwrist 2.07981
rhand -24.3437 5.79035
rfingers 7.12502
rthumb 2.1454 -24.1786
lclavicle -3.47873e-015 1.82882e-014
lhumerus 35.2226 28.4997 86.9719
lradius 41.2886
lwrist 48.1701
lhand -8.64743 48.7811
lfingers 7.12502
lthumb 17.2858 1158.03
rfemur -110.527 -33.6734 29.7363
rtibia 25.7636
rfoot 155.27 24.3929
rtoes -20.7665
lfemur -52.8044 27.8154 31.0217
ltibia 68.5756
lfoot 354.561 1.16642
ltoes -41.7036
853
root -2.08885 7.73301 -10.4358 188.959 155.939 189.78
lowerback 32.5345 1.1545 -7.83464
upperback 0.13583 -2.01977 -3.59568
thorax -16.7065 -0.364137 1.11881
lowerneck -6.98639 9.68477 6.6874
upperneck -10.4665 12.2615 -8.22891
head -1.18574 6.09913 -3.57815
rclavicle -8.44835e-015 3.10104e-014
rhumerus -50.9741 30.0935 -109.512
rradius 115.817
rwrist 2.51613
rhand -24.6867 5.42131
rfingers 7.12502
rthumb 1.81411 -24.5507
lclavicle -8.44835e-015 3.10104e-014
lhumerus 36.6761 29.3375 87.4795
lradius 40.2639
lwrist 48.0351
lhand -8.0666 48.7753
lfingers 7.12502
lthumb 17.8448 1157.98
rfemur -110.975 -33.4783 29.8304
rtibia 25.6088
rfoot 155.584 24.2689
rtoes -20.3538
lfemur -52.5586 27.978 31.0064
ltibia 68.1829
lfoot 355.502 1.30742
ltoes -42.1087
